<svg xmlns="http://www.w3.org/2000/svg" viewBox="0 0 32 32" width="32" height="32">
  <defs>
    <linearGradient id="ghostGradient32" x1="0%" y1="0%" x2="100%" y2="100%">
      <stop offset="0%" style="stop-color:#6366f1;stop-opacity:1" />
      <stop offset="100%" style="stop-color:#8b5cf6;stop-opacity:1" />
    </linearGradient>
  </defs>
  <g transform="translate(16, 16)">
    <path d="M -8 -4 L -8 6 Q -8 10 -4 10 L 4 10 Q 8 10 8 6 L 8 -4 Q 8 -8 4 -8 L -4 -8 Q -8 -8 -8 -4 Z" 
          fill="url(#ghostGradient32)" opacity="0.95"/>
    <path d="M -8 6 Q -6 8 -4 6 Q -2 8 0 6 Q 2 8 4 6 Q 6 8 8 6" 
          fill="none" stroke="url(#ghostGradient32)" stroke-width="1.5" stroke-linecap="round"/>
    <circle cx="-3" cy="-2" r="1.5" fill="#0f172a"/>
    <circle cx="-3" cy="-2" r="0.8" fill="#e0f2fe"/>
    <circle cx="3" cy="-2" r="1.5" fill="#0f172a"/>
    <circle cx="3" cy="-2" r="0.8" fill="#e0f2fe"/>
  </g>
</svg>